name analog
datacolumns 19
datarows 84
range 0.3965 0.438
endheader
time	ground_force_vx	ground_force_vy	ground_force_vz	ground_force_px	ground_force_py	ground_force_pz	l_ground_force_vx	l_ground_force_vy	l_ground_force_vz	l_ground_force_px	l_ground_force_py	l_ground_force_pz	ground_torque_x	ground_torque_y	ground_torque_z	l_ground_torque_x	l_ground_torque_y	l_ground_torque_z
0.3965	-0.0	-0.0	-0.0	-3.183002233505249	-5.080432891845703	-818.9677124023438	-0.0	-0.0	-0.0	-0.0	-0.0	-0.0	-0.0	-0.0	-0.0	-0.0	-0.0	-0.0
0.397	-0.0	-0.0	-0.0	-2.9543049335479736	-4.9305949211120605	-818.118408203125	-0.0	-0.0	-0.0	-0.0	-0.0	-0.0	-0.0	-0.0	-0.0	-0.0	-0.0	-0.0
0.3975	-0.0	-0.0	-0.0	-2.568814754486084	-5.40861177444458	-820.1400146484375	-0.0	-0.0	-0.0	-0.0	-0.0	-0.0	-0.0	-0.0	-0.0	-0.0	-0.0	-0.0
0.398	-0.0	-0.0	-0.0	-1.8311090469360352	-5.915371894836426	-818.1880493164062	-0.0	-0.0	-0.0	-0.0	-0.0	-0.0	-0.0	-0.0	-0.0	-0.0	-0.0	-0.0
0.3985	-0.0	-0.0	-0.0	-1.2398570775985718	-5.225684642791748	-817.4447631835938	-0.0	-0.0	-0.0	-0.0	-0.0	-0.0	-0.0	-0.0	-0.0	-0.0	-0.0	-0.0
0.399	-0.0	-0.0	-0.0	-0.1172140464186668	-4.827030658721924	-815.0838623046875	-0.0	-0.0	-0.0	-0.0	-0.0	-0.0	-0.0	-0.0	-0.0	-0.0	-0.0	-0.0
0.3995	-0.0	-0.0	-0.0	1.3299171924591064	-3.57344913482666	-814.18994140625	-0.0	-0.0	-0.0	-0.0	-0.0	-0.0	-0.0	-0.0	-0.0	-0.0	-0.0	-0.0
0.4	-0.0	-0.0	-0.0	2.0241196155548096	-3.0105462074279785	-808.8369750976562	-0.0	-0.0	-0.0	-0.0	-0.0	-0.0	-0.0	-0.0	-0.0	-0.0	-0.0	-0.0
0.4005	-0.0	-0.0	-0.0	1.8734207153320312	-2.1731619834899902	-803.7026977539062	-0.0	-0.0	-0.0	-0.0	-0.0	-0.0	-0.0	-0.0	-0.0	-0.0	-0.0	-0.0
0.401	-0.0	-0.0	-0.0	1.9626312255859373	-1.5973851680755615	-800.2244873046875	-0.0	-0.0	-0.0	-0.0	-0.0	-0.0	-0.0	-0.0	-0.0	-0.0	-0.0	-0.0
0.4015	-0.0	-0.0	-0.0	2.4293997287750244	-1.179392695426941	-798.485595703125	-0.0	-0.0	-0.0	-0.0	-0.0	-0.0	-0.0	-0.0	-0.0	-0.0	-0.0	-0.0
0.402	-0.0	-0.0	-0.0	2.457038164138794	-0.9879261255264282	-798.4859008789062	-0.0	-0.0	-0.0	-0.0	-0.0	-0.0	-0.0	-0.0	-0.0	-0.0	-0.0	-0.0
0.4025	-0.0	-0.0	-0.0	1.6057891845703125	-1.2963192462921145	-799.031494140625	-0.0	-0.0	-0.0	-0.0	-0.0	-0.0	-0.0	-0.0	-0.0	-0.0	-0.0	-0.0
0.403	-0.0	-0.0	-0.0	2.065358161926269	-1.5287212133407593	-800.5733642578125	-0.0	-0.0	-0.0	-0.0	-0.0	-0.0	-0.0	-0.0	-0.0	-0.0	-0.0	-0.0
0.4035	-0.0	-0.0	-0.0	1.6057891845703125	-2.3442389965057373	-803.8715209960938	-0.0	-0.0	-0.0	-0.0	-0.0	-0.0	-0.0	-0.0	-0.0	-0.0	-0.0	-0.0
0.404	-0.0	-0.0	-0.0	1.9091295003890991	-2.544691324234009	-804.0317993164062	-0.0	-0.0	-0.0	-0.0	-0.0	-0.0	-0.0	-0.0	-0.0	-0.0	-0.0	-0.0
0.4045	-0.0	-0.0	-0.0	1.7709091901779177	-1.3768233060836792	-806.0991821289062	-0.0	-0.0	-0.0	-0.0	-0.0	-0.0	-0.0	-0.0	-0.0	-0.0	-0.0	-0.0
0.405	-0.0	-0.0	-0.0	1.886674880981445	-0.4094907939434051	-804.5439453125	-0.0	-0.0	-0.0	-0.0	-0.0	-0.0	-0.0	-0.0	-0.0	-0.0	-0.0	-0.0
0.4055	-0.0	-0.0	-0.0	2.0022125244140625	0.4556910991668701	-805.6033935546875	-0.0	-0.0	-0.0	-0.0	-0.0	-0.0	-0.0	-0.0	-0.0	-0.0	-0.0	-0.0
0.406	-0.0	-0.0	-0.0	3.006930351257324	0.4456520080566406	-802.26904296875	-0.0	-0.0	-0.0	-0.0	-0.0	-0.0	-0.0	-0.0	-0.0	-0.0	-0.0	-0.0
0.40650000000000003	-0.0	-0.0	-0.0	2.907029151916504	0.4848364293575287	-800.762451171875	-0.0	-0.0	-0.0	-0.0	-0.0	-0.0	-0.0	-0.0	-0.0	-0.0	-0.0	-0.0
0.40700000000000003	-0.0	-0.0	-0.0	3.072253465652466	0.6629738211631775	-797.77392578125	-0.0	-0.0	-0.0	-0.0	-0.0	-0.0	-0.0	-0.0	-0.0	-0.0	-0.0	-0.0
0.40750000000000003	-0.0	-0.0	-0.0	4.523832321166992	0.3047608435153961	-798.488525390625	-0.0	-0.0	-0.0	-0.0	-0.0	-0.0	-0.0	-0.0	-0.0	-0.0	-0.0	-0.0
0.40800000000000003	-0.0	-0.0	-0.0	5.70947265625	-0.1287944912910461	-797.935546875	-0.0	-0.0	-0.0	-0.0	-0.0	-0.0	-0.0	-0.0	-0.0	-0.0	-0.0	-0.0
0.40850000000000003	-0.0	-0.0	-0.0	7.225546836853027	-0.9553287625312804	-795.76513671875	-0.0	-0.0	-0.0	-0.0	-0.0	-0.0	-0.0	-0.0	-0.0	-0.0	-0.0	-0.0
0.40900000000000003	-0.0	-0.0	-0.0	7.6212029457092285	-1.426264762878418	-791.5773315429688	-0.0	-0.0	-0.0	-0.0	-0.0	-0.0	-0.0	-0.0	-0.0	-0.0	-0.0	-0.0
0.40950000000000003	-0.0	-0.0	-0.0	7.901360988616943	-1.8587937355041504	-789.4578247070312	-0.0	-0.0	-0.0	-0.0	-0.0	-0.0	-0.0	-0.0	-0.0	-0.0	-0.0	-0.0
0.41000000000000003	-0.0	-0.0	-0.0	8.360529899597168	-1.629582166671753	-788.2444458007812	-0.0	-0.0	-0.0	-0.0	-0.0	-0.0	-0.0	-0.0	-0.0	-0.0	-0.0	-0.0
0.41050000000000003	-0.0	-0.0	-0.0	8.857017517089844	-1.2729796171188354	-787.989990234375	-0.0	-0.0	-0.0	-0.0	-0.0	-0.0	-0.0	-0.0	-0.0	-0.0	-0.0	-0.0
0.41100000000000003	-0.0	-0.0	-0.0	9.010261535644531	-0.9943482875823976	-787.894775390625	-0.0	-0.0	-0.0	-0.0	-0.0	-0.0	-0.0	-0.0	-0.0	-0.0	-0.0	-0.0
0.41150000000000003	-0.0	-0.0	-0.0	8.551741600036621	-1.2104578018188477	-788.6507568359375	-0.0	-0.0	-0.0	-0.0	-0.0	-0.0	-0.0	-0.0	-0.0	-0.0	-0.0	-0.0
0.41200000000000003	-0.0	-0.0	-0.0	9.178643226623535	-1.2478256225585938	-790.7605590820312	-0.0	-0.0	-0.0	-0.0	-0.0	-0.0	-0.0	-0.0	-0.0	-0.0	-0.0	-0.0
0.41250000000000003	-0.0	-0.0	-0.0	8.564208984375	-1.6413084268569946	-793.2536010742188	-0.0	-0.0	-0.0	-0.0	-0.0	-0.0	-0.0	-0.0	-0.0	-0.0	-0.0	-0.0
0.41300000000000003	-0.0	-0.0	-0.0	8.994763374328613	-1.7057520151138306	-793.961181640625	-0.0	-0.0	-0.0	-0.0	-0.0	-0.0	-0.0	-0.0	-0.0	-0.0	-0.0	-0.0
0.41350000000000003	-0.0	-0.0	-0.0	9.05923843383789	-2.471184492111206	-794.8488159179688	-0.0	-0.0	-0.0	-0.0	-0.0	-0.0	-0.0	-0.0	-0.0	-0.0	-0.0	-0.0
0.41400000000000003	-0.0	-0.0	-0.0	8.665583610534668	-2.9007856845855717	-796.1639404296875	-0.0	-0.0	-0.0	-0.0	-0.0	-0.0	-0.0	-0.0	-0.0	-0.0	-0.0	-0.0
0.41450000000000004	-0.0	-0.0	-0.0	8.272371292114258	-2.883966445922852	-793.9963989257812	-0.0	-0.0	-0.0	-0.0	-0.0	-0.0	-0.0	-0.0	-0.0	-0.0	-0.0	-0.0
0.41500000000000004	-0.0	-0.0	-0.0	7.445435047149658	-3.808505058288574	-794.3494262695312	-0.0	-0.0	-0.0	-0.0	-0.0	-0.0	-0.0	-0.0	-0.0	-0.0	-0.0	-0.0
0.41550000000000004	-0.0	-0.0	-0.0	6.613559722900391	-3.791360855102539	-794.2542114257812	-0.0	-0.0	-0.0	-0.0	-0.0	-0.0	-0.0	-0.0	-0.0	-0.0	-0.0	-0.0
0.41600000000000004	-0.0	-0.0	-0.0	5.239538192749023	-5.020782470703125	-791.4761962890625	-0.0	-0.0	-0.0	-0.0	-0.0	-0.0	-0.0	-0.0	-0.0	-0.0	-0.0	-0.0
0.4165	-0.0	-0.0	-0.0	4.751883506774902	-5.139695644378662	-791.0046997070312	-0.0	-0.0	-0.0	-0.0	-0.0	-0.0	-0.0	-0.0	-0.0	-0.0	-0.0	-0.0
0.417	-0.0	-0.0	-0.0	3.4910097122192383	-5.627004623413086	-790.1102294921875	-0.0	-0.0	-0.0	-0.0	-0.0	-0.0	-0.0	-0.0	-0.0	-0.0	-0.0	-0.0
0.4175	-0.0	-0.0	-0.0	2.361647844314575	-6.210774421691895	-789.6910400390625	-0.0	-0.0	-0.0	-0.0	-0.0	-0.0	-0.0	-0.0	-0.0	-0.0	-0.0	-0.0
0.418	-0.0	-0.0	-0.0	1.256406307220459	-6.014194011688232	-786.9310913085938	-0.0	-0.0	-0.0	-0.0	-0.0	-0.0	-0.0	-0.0	-0.0	-0.0	-0.0	-0.0
0.4185	-0.0	-0.0	-0.0	-0.5041419863700867	-6.250735759735107	-788.297607421875	-0.0	-0.0	-0.0	-0.0	-0.0	-0.0	-0.0	-0.0	-0.0	-0.0	-0.0	-0.0
0.419	-0.0	-0.0	-0.0	-1.9626312255859373	-6.564352989196777	-789.2332153320312	-0.0	-0.0	-0.0	-0.0	-0.0	-0.0	-0.0	-0.0	-0.0	-0.0	-0.0	-0.0
0.4195	-0.0	-0.0	-0.0	-3.1568586826324463	-7.688187599182129	-793.4242553710938	-0.0	-0.0	-0.0	-0.0	-0.0	-0.0	-0.0	-0.0	-0.0	-0.0	-0.0	-0.0
0.42	-0.0	-0.0	-0.0	-4.115119457244873	-8.5565185546875	-794.7907104492188	-0.0	-0.0	-0.0	-0.0	-0.0	-0.0	-0.0	-0.0	-0.0	-0.0	-0.0	-0.0
0.4205	-0.0	-0.0	-0.0	-5.1969313621521	-8.746129989624023	-796.3824462890625	-0.0	-0.0	-0.0	-0.0	-0.0	-0.0	-0.0	-0.0	-0.0	-0.0	-0.0	-0.0
0.421	-0.0	-0.0	-0.0	-5.85394811630249	-8.768694877624512	-798.62939453125	-0.0	-0.0	-0.0	-0.0	-0.0	-0.0	-0.0	-0.0	-0.0	-0.0	-0.0	-0.0
0.4215	-0.0	-0.0	-0.0	-6.055039882659912	-9.99485683441162	-800.9674682617188	-0.0	-0.0	-0.0	-0.0	-0.0	-0.0	-0.0	-0.0	-0.0	-0.0	-0.0	-0.0
0.422	-0.0	-0.0	-0.0	-6.590383052825928	-10.160865783691406	-801.80712890625	-0.0	-0.0	-0.0	-0.0	-0.0	-0.0	-0.0	-0.0	-0.0	-0.0	-0.0	-0.0
0.4225	-0.0	-0.0	-0.0	-7.5270843505859375	-10.573006629943848	-802.6016235351562	-0.0	-0.0	-0.0	-0.0	-0.0	-0.0	-0.0	-0.0	-0.0	-0.0	-0.0	-0.0
0.423	-0.0	-0.0	-0.0	-7.984574317932129	-10.918240547180176	-803.7496948242188	-0.0	-0.0	-0.0	-0.0	-0.0	-0.0	-0.0	-0.0	-0.0	-0.0	-0.0	-0.0
0.4235	-0.0	-0.0	-0.0	-7.928722858428955	-12.523375511169434	-807.5045166015625	-0.0	-0.0	-0.0	-0.0	-0.0	-0.0	-0.0	-0.0	-0.0	-0.0	-0.0	-0.0
0.424	-0.0	-0.0	-0.0	-7.84892988204956	-13.224125862121582	-806.7496948242188	-0.0	-0.0	-0.0	-0.0	-0.0	-0.0	-0.0	-0.0	-0.0	-0.0	-0.0	-0.0
0.4245	-0.0	-0.0	-0.0	-7.926660537719727	-13.26956272125244	-806.0427856445312	-0.0	-0.0	-0.0	-0.0	-0.0	-0.0	-0.0	-0.0	-0.0	-0.0	-0.0	-0.0
0.425	-0.0	-0.0	-0.0	-7.693765640258789	-13.223762512207031	-802.4676513671875	-0.0	-0.0	-0.0	-0.0	-0.0	-0.0	-0.0	-0.0	-0.0	-0.0	-0.0	-0.0
0.4255	-0.0	-0.0	-0.0	-7.804396152496338	-11.73293113708496	-801.1400146484375	-0.0	-0.0	-0.0	-0.0	-0.0	-0.0	-0.0	-0.0	-0.0	-0.0	-0.0	-0.0
0.426	-0.0	-0.0	-0.0	-8.56052017211914	-10.68496799468994	-799.599365234375	-0.0	-0.0	-0.0	-0.0	-0.0	-0.0	-0.0	-0.0	-0.0	-0.0	-0.0	-0.0
0.4265	-0.0	-0.0	-0.0	-9.598773002624512	-10.296566009521484	-799.9946899414062	-0.0	-0.0	-0.0	-0.0	-0.0	-0.0	-0.0	-0.0	-0.0	-0.0	-0.0	-0.0
0.427	-0.0	-0.0	-0.0	-10.941067695617676	-9.98260498046875	-797.9423217773438	-0.0	-0.0	-0.0	-0.0	-0.0	-0.0	-0.0	-0.0	-0.0	-0.0	-0.0	-0.0
0.4275	-0.0	-0.0	-0.0	-11.7652587890625	-10.181902885437012	-801.4069213867188	-0.0	-0.0	-0.0	-0.0	-0.0	-0.0	-0.0	-0.0	-0.0	-0.0	-0.0	-0.0
0.428	-0.0	-0.0	-0.0	-12.793974876403809	-9.856635093688965	-804.1492309570312	-0.0	-0.0	-0.0	-0.0	-0.0	-0.0	-0.0	-0.0	-0.0	-0.0	-0.0	-0.0
0.4285	-0.0	-0.0	-0.0	-12.31536865234375	-11.545421600341797	-806.9097900390625	-0.0	-0.0	-0.0	-0.0	-0.0	-0.0	-0.0	-0.0	-0.0	-0.0	-0.0	-0.0
0.429	-0.0	-0.0	-0.0	-12.757102966308594	-11.3298978805542	-808.239501953125	-0.0	-0.0	-0.0	-0.0	-0.0	-0.0	-0.0	-0.0	-0.0	-0.0	-0.0	-0.0
0.4295	-0.0	-0.0	-0.0	-12.540901184082031	-10.904739379882812	-807.6137084960938	-0.0	-0.0	-0.0	-0.0	-0.0	-0.0	-0.0	-0.0	-0.0	-0.0	-0.0	-0.0
0.43	-0.0	-0.0	-0.0	-12.053624153137209	-10.70584487915039	-808.8524169921875	-0.0	-0.0	-0.0	-0.0	-0.0	-0.0	-0.0	-0.0	-0.0	-0.0	-0.0	-0.0
0.4305	-0.0	-0.0	-0.0	-11.278908729553224	-10.150710105895996	-806.6227416992188	-0.0	-0.0	-0.0	-0.0	-0.0	-0.0	-0.0	-0.0	-0.0	-0.0	-0.0	-0.0
0.431	-0.0	-0.0	-0.0	-10.348419189453123	-8.992055892944336	-803.6847534179688	-0.0	-0.0	-0.0	-0.0	-0.0	-0.0	-0.0	-0.0	-0.0	-0.0	-0.0	-0.0
0.4315	-0.0	-0.0	-0.0	-9.397234916687012	-7.961527347564697	-803.6036376953125	-0.0	-0.0	-0.0	-0.0	-0.0	-0.0	-0.0	-0.0	-0.0	-0.0	-0.0	-0.0
0.432	-0.0	-0.0	-0.0	-8.633452415466309	-6.743987083435059	-803.7584838867188	-0.0	-0.0	-0.0	-0.0	-0.0	-0.0	-0.0	-0.0	-0.0	-0.0	-0.0	-0.0
0.4325	-0.0	-0.0	-0.0	-7.592801094055176	-5.5657219886779785	-800.7767333984375	-0.0	-0.0	-0.0	-0.0	-0.0	-0.0	-0.0	-0.0	-0.0	-0.0	-0.0	-0.0
0.433	-0.0	-0.0	-0.0	-7.077664852142334	-3.931591510772705	-797.6382446289062	-0.0	-0.0	-0.0	-0.0	-0.0	-0.0	-0.0	-0.0	-0.0	-0.0	-0.0	-0.0
0.4335	-0.0	-0.0	-0.0	-6.105523109436035	-2.2174763679504395	-792.4969482421875	-0.0	-0.0	-0.0	-0.0	-0.0	-0.0	-0.0	-0.0	-0.0	-0.0	-0.0	-0.0
0.434	-0.0	-0.0	-0.0	-5.707759857177734	-1.2883899211883545	-792.0286865234375	-0.0	-0.0	-0.0	-0.0	-0.0	-0.0	-0.0	-0.0	-0.0	-0.0	-0.0	-0.0
0.4345	-0.0	-0.0	-0.0	-5.222615718841553	0.3371765613555908	-789.9019775390625	-0.0	-0.0	-0.0	-0.0	-0.0	-0.0	-0.0	-0.0	-0.0	-0.0	-0.0	-0.0
0.435	-0.0	-0.0	-0.0	-4.728157043457031	0.7925412654876709	-791.1994018554688	-0.0	-0.0	-0.0	-0.0	-0.0	-0.0	-0.0	-0.0	-0.0	-0.0	-0.0	-0.0
0.4355	-0.0	-0.0	-0.0	-4.409558296203613	1.2860345840454102	-792.6492919921875	-0.0	-0.0	-0.0	-0.0	-0.0	-0.0	-0.0	-0.0	-0.0	-0.0	-0.0	-0.0
0.436	-0.0	-0.0	-0.0	-3.953763723373413	1.4867411851882937	-794.2640380859375	-0.0	-0.0	-0.0	-0.0	-0.0	-0.0	-0.0	-0.0	-0.0	-0.0	-0.0	-0.0
0.4365	-0.0	-0.0	-0.0	-3.540147304534912	1.3652037382125854	-796.6993408203125	-0.0	-0.0	-0.0	-0.0	-0.0	-0.0	-0.0	-0.0	-0.0	-0.0	-0.0	-0.0
0.437	-0.0	-0.0	-0.0	-3.1834394931793213	1.0695648193359375	-796.40185546875	-0.0	-0.0	-0.0	-0.0	-0.0	-0.0	-0.0	-0.0	-0.0	-0.0	-0.0	-0.0
0.4375	-0.0	-0.0	-0.0	-1.581800103187561	1.416777491569519	-799.7468872070312	-0.0	-0.0	-0.0	-0.0	-0.0	-0.0	-0.0	-0.0	-0.0	-0.0	-0.0	-0.0
0.438	-0.0	-0.0	-0.0	-0.6859726905822754	2.139129638671875	-799.7456665039062	-0.0	-0.0	-0.0	-0.0	-0.0	-0.0	-0.0	-0.0	-0.0	-0.0	-0.0	-0.0
